<svg xmlns="http://www.w3.org/2000/svg" width="86.296" height="28.15" viewBox="0 0 86.296 28.15">
  <g id="logo" transform="translate(-21.54 -10.97)">
    <path id="Path_38165" data-name="Path 38165" d="M286.891,28a10.4,10.4,0,0,1-3.06,7.435,10.777,10.777,0,0,1-11.622,2.227,10.637,10.637,0,0,1-3.34-2.227A10.4,10.4,0,0,1,265.81,28a10.541,10.541,0,1,1,21.081,0Zm-4.077-.013a6.118,6.118,0,0,0-.518-2.515,6.507,6.507,0,0,0-3.452-3.4,6.258,6.258,0,0,0-2.494-.5,6.385,6.385,0,0,0-2.526.5,6.622,6.622,0,0,0-2.056,1.367,6.371,6.371,0,0,0,2.056,10.442,6.52,6.52,0,0,0,2.526.489,6.474,6.474,0,0,0,4.549-1.842,6.551,6.551,0,0,0,1.4-2.029A6.136,6.136,0,0,0,282.814,27.987Z" transform="translate(-179.055 -4.757)" fill="#f26322" fill-rule="evenodd"/>
    <path id="Path_38166" data-name="Path 38166" d="M27.21,13.421a2.35,2.35,0,0,1,.716-1.741,2.316,2.316,0,0,1,1.687-.71,2.343,2.343,0,0,1,1.738.71,2.39,2.39,0,0,1,.7,1.741,2.31,2.31,0,0,1-.7,1.677,2.339,2.339,0,0,1-1.738.71,2.316,2.316,0,0,1-1.687-.71A2.277,2.277,0,0,1,27.21,13.421Z" transform="translate(-4.156)" fill="#cb2026" fill-rule="evenodd"/>
    <path id="Path_38167" data-name="Path 38167" d="M21.54,52.92l.085-.035a3.051,3.051,0,0,0,.982-.662,3.211,3.211,0,0,0,.662-.966,2.866,2.866,0,0,0,.243-1.161V35.74h4.194V50.1a7.142,7.142,0,0,1-.563,2.838,7.2,7.2,0,0,1-3.855,3.855,7,7,0,0,1-1.749.489Z" transform="translate(0 -18.157)" fill="#cb2026" fill-rule="evenodd"/>
    <path id="Path_38168" data-name="Path 38168" d="M151.6,23.249h1V18.83h4.031v4.419h2.195V26.57h-2.195v7.387q0,1.678,1.741,1.677v3.548a6.391,6.391,0,0,1-4.4-1.257,5.148,5.148,0,0,1-1.37-3.967V26.57h-1Z" transform="translate(-95.337 -5.762)" fill="#f99e1c" fill-rule="evenodd"/>
    <path id="Path_38169" data-name="Path 38169" d="M56.2,35.62v7.71c0,1.442-.184,3.991,2.352,3.991,1.789,0,2.531-.6,2.531-3.925V35.62h4V51.425h-4V49.361c-.537,1.29-1.96,2.283-4.565,1.813-1.7-.307-4.32-1.383-4.32-6.987V35.62Z" transform="translate(-22.474 -18.069)" fill="#ee3923" fill-rule="evenodd"/>
    <path id="Path_38170" data-name="Path 38170" d="M113.71,38.335a1.893,1.893,0,0,0-.35-1.156,1.055,1.055,0,0,0-.881-.473,1.029,1.029,0,0,0-.865.449,1.818,1.818,0,0,0-.331,1.113c0,.489.032,1.268.7,1.573a18.114,18.114,0,0,0,1.96.55,4.75,4.75,0,0,1,2.643,1.511,4.689,4.689,0,0,1,.881,3.041,5.222,5.222,0,0,1-.382,1.994A4.882,4.882,0,0,1,116,48.565a5.181,5.181,0,0,1-1.629,1.1,5.064,5.064,0,0,1-2.026.4,5.539,5.539,0,0,1-1.96-.35,4.918,4.918,0,0,1-1.629-1,4.628,4.628,0,0,1-1.1-1.578,5.16,5.16,0,0,1-.4-2.061h4.12a1.529,1.529,0,0,0,.382,1.1,1.178,1.178,0,0,0,.881.4,1.084,1.084,0,0,0,.83-.416,1.529,1.529,0,0,0,.366-1.047,1.146,1.146,0,0,0-.216-.716,1.7,1.7,0,0,0-.614-.481,3.97,3.97,0,0,0-.932-.315c-.355-.077-.732-.171-1.129-.283a4.585,4.585,0,0,1-3.69-4.915,5.5,5.5,0,0,1,.366-2.026,4.466,4.466,0,0,1,1.047-1.594,4.962,4.962,0,0,1,1.613-1.047,5.4,5.4,0,0,1,2.061-.382,5.211,5.211,0,0,1,3.754,1.3,4.857,4.857,0,0,1,1.362,3.682Z" transform="translate(-62.834 -16.405)" fill="#f26322" fill-rule="evenodd"/>
    <path id="Path_38171" data-name="Path 38171" d="M201.142,23.623a9.854,9.854,0,0,0-1.372-1.1,5.912,5.912,0,0,0-3.34-.934,6.412,6.412,0,0,0-2.55.507,6.5,6.5,0,0,0-2.058,1.38,6.583,6.583,0,0,0-1.378,2.048,6.608,6.608,0,0,0,0,5.078,6.493,6.493,0,0,0,1.378,2.048,6.232,6.232,0,0,0,2.058,1.364,6.583,6.583,0,0,0,2.55.491,7.446,7.446,0,0,0,3.292-.665,5.315,5.315,0,0,0,2.026-1.583V30.992H196.9V27.35h8.68v6.365a12.44,12.44,0,0,1-4,3.61,10.3,10.3,0,0,1-5.145,1.33,10.509,10.509,0,0,1-4.149-.822,10.491,10.491,0,0,1-5.628-5.6,10.358,10.358,0,0,1-.833-4.149,10.482,10.482,0,0,1,.833-4.165,10.788,10.788,0,0,1,2.264-3.388,10.51,10.51,0,0,1,7.513-3.086,10.946,10.946,0,0,1,4.814,1.148,9.951,9.951,0,0,1,2.571,1.8Z" transform="translate(-120.421 -4.743)" fill="#f26322" fill-rule="evenodd"/>
  </g>
</svg>
